<?xml version="1.0" standalone="no"?>
<!DOCTYPE svg PUBLIC "-//W3C//DTD SVG 20010904//EN"
 "http://www.w3.org/TR/2001/REC-SVG-20010904/DTD/svg10.dtd">
<svg version="1.0" xmlns="http://www.w3.org/2000/svg"
 width="900.000000pt" height="495.000000pt" viewBox="0 0 900.000000 495.000000"
 preserveAspectRatio="xMidYMid meet">
<metadata>
Created by potrace 1.10, written by Peter Selinger 2001-2011
</metadata>
<g transform="translate(0.000000,495.000000) scale(0.100000,-0.100000)"
fill="#000000" stroke="none">
<path d="M4488 4810 c-15 -4 -51 -11 -80 -15 -59 -7 -213 -52 -331 -96 -43
-16 -87 -29 -97 -29 -27 0 -52 -38 -39 -62 13 -24 31 -23 109 6 162 61 217 80
250 87 19 4 82 17 140 30 82 17 138 23 255 23 215 1 220 -4 220 -199 0 -108
-1 -112 -33 -162 -39 -61 -170 -189 -264 -257 -38 -28 -68 -53 -68 -58 0 -4
-7 -8 -15 -8 -12 0 -15 18 -16 98 -1 96 -17 216 -32 240 -13 19 -55 15 -62 -7
-3 -10 1 -52 9 -92 23 -116 31 -273 14 -286 -14 -12 -100 -43 -208 -74 -36
-11 -112 -22 -170 -25 -79 -5 -108 -10 -117 -22 -20 -25 -15 -42 14 -53 59
-22 366 39 438 88 11 7 27 13 36 13 15 0 18 -21 24 -177 4 -98 5 -242 2 -320
-4 -129 -3 -143 14 -159 21 -19 46 -13 57 15 4 11 3 145 -1 298 -5 153 -9 304
-10 336 -2 58 -2 58 38 80 59 32 156 105 236 178 97 88 164 180 178 247 22
105 9 258 -26 308 -37 52 -88 64 -271 63 -92 0 -179 -4 -194 -9z"/>
<path d="M1565 4721 c-154 -46 -289 -60 -598 -61 -168 0 -179 1 -184 19 -8 32
-36 35 -58 7 l-21 -26 -196 0 c-217 0 -266 -7 -377 -55 -70 -29 -76 -34 -76
-61 0 -38 26 -43 80 -16 109 55 109 55 345 63 124 4 227 5 229 3 3 -3 4 -265
2 -583 -2 -527 -1 -579 14 -594 9 -10 22 -17 29 -17 36 0 37 17 35 612 l-2
583 154 -3 c188 -4 440 11 534 33 220 50 225 52 225 91 0 21 -4 24 -37 23 -21
0 -65 -8 -98 -18z"/>
<path d="M1815 4661 c-3 -6 -5 -258 -4 -561 1 -585 1 -576 47 -551 16 8 20 25
25 93 6 95 21 136 84 230 49 72 117 126 190 148 71 22 71 23 65 -243 -5 -243
-1 -277 36 -277 40 0 42 15 42 272 0 162 -4 256 -11 272 -25 54 -120 59 -222
13 -57 -27 -100 -69 -143 -142 -31 -54 -49 -54 -48 1 5 158 4 736 -1 744 -8
13 -52 13 -60 1z"/>
<path d="M2682 4207 c-21 -23 -22 -31 -22 -261 l0 -237 -22 1 c-44 4 -49 1
-46 -27 2 -22 9 -29 33 -33 l30 -5 3 -129 3 -129 34 -46 c67 -92 161 -115 437
-109 203 5 248 15 248 54 0 37 -29 46 -91 28 -43 -13 -89 -15 -239 -12 -211 5
-248 14 -293 70 -28 35 -30 41 -31 140 l-1 103 76 0 c68 0 79 3 113 29 58 44
77 99 83 242 8 170 2 202 -50 254 -84 85 -217 118 -265 67z m146 -64 c30 -15
65 -41 79 -57 25 -30 25 -32 21 -176 -7 -205 -25 -234 -141 -228 l-62 3 0 230
c0 127 4 236 9 243 13 18 35 15 94 -15z"/>
<path d="M6270 3984 c-91 -30 -178 -100 -262 -211 -46 -60 -102 -167 -114
-216 -3 -15 -11 -26 -18 -24 -9 3 -14 18 -32 105 -7 34 -73 102 -99 102 -22 0
-35 -17 -35 -45 0 -7 15 -23 34 -34 35 -22 48 -53 62 -151 3 -25 10 -52 15
-61 4 -9 15 -49 23 -90 19 -87 33 -107 65 -87 19 12 21 22 21 119 0 118 9 148
83 269 92 151 241 280 273 236 16 -23 61 -20 69 3 8 25 -10 68 -34 80 -21 12
-27 12 -51 5z"/>
<path d="M5419 3858 c0 -7 0 -136 1 -285 2 -325 7 -316 -122 -196 -124 115
-157 173 -168 292 -7 74 -8 75 -59 123 -53 49 -77 58 -99 36 -23 -23 -12 -48
31 -74 54 -35 57 -39 57 -102 0 -87 53 -189 146 -279 138 -134 216 -171 260
-122 18 20 19 40 19 318 l0 296 -32 3 c-22 2 -33 -1 -34 -10z"/>
<path d="M8120 3851 c-8 -5 -36 -12 -62 -15 -82 -12 -151 -59 -165 -114 -9
-39 6 -133 31 -187 13 -28 42 -71 65 -95 23 -24 40 -51 39 -59 -2 -10 -23 -20
-58 -28 -30 -7 -82 -19 -115 -28 -91 -25 -284 -57 -296 -49 -5 3 -9 37 -9 76
0 57 -5 81 -30 132 -38 79 -110 169 -159 200 -48 30 -123 42 -177 27 -47 -12
-89 -53 -81 -75 7 -19 48 -21 65 -4 21 21 25 -1 6 -29 -16 -24 -19 -47 -19
-155 0 -126 0 -126 31 -165 16 -21 50 -48 75 -60 58 -29 177 -40 233 -22 22 7
59 12 81 11 59 -4 218 22 320 52 176 52 200 60 218 75 28 23 20 43 -44 109
-69 72 -94 121 -104 203 -6 49 -4 60 13 77 21 21 80 42 120 42 35 0 92 27 92
44 0 18 -27 46 -43 46 -7 0 -19 -4 -27 -9z m-794 -223 c48 -38 79 -76 119
-146 33 -60 37 -75 39 -142 l1 -75 -80 1 c-99 0 -157 26 -174 75 -17 48 -14
208 4 243 8 15 12 32 9 37 -3 5 -2 14 1 19 11 17 51 11 81 -12z"/>
<path d="M8613 3816 c-15 -13 -37 -44 -49 -68 -53 -110 -55 -118 -53 -215 3
-106 2 -107 -69 -118 -25 -4 -52 -10 -61 -15 -9 -4 -54 -26 -101 -49 -113 -55
-124 -64 -116 -95 8 -33 38 -34 80 -3 34 26 165 85 239 109 l48 16 38 -52 c52
-71 100 -110 181 -151 83 -42 144 -47 153 -14 9 35 -2 46 -61 59 -31 7 -74 21
-95 32 -44 22 -147 118 -147 136 0 6 32 28 71 47 164 81 288 182 291 237 7
139 -30 168 -219 168 -93 0 -104 -2 -130 -24z m260 -55 c51 -20 41 -87 -21
-134 -89 -69 -253 -169 -268 -163 -13 5 -14 18 -9 78 10 102 43 194 80 220 15
11 189 10 218 -1z"/>
<path d="M6668 3749 c-37 -19 -42 -27 -105 -169 -16 -34 -16 -34 -25 -10 -5
14 -7 34 -4 45 3 10 3 30 -1 43 -4 18 -11 22 -32 20 l-26 -3 0 -180 c0 -147
-3 -186 -17 -215 -48 -101 -51 -132 -51 -524 1 -316 3 -377 17 -415 9 -24 16
-58 17 -75 1 -40 30 -90 55 -94 51 -6 49 -26 49 595 1 318 4 594 9 613 4 19
13 49 21 65 7 17 21 50 30 75 50 132 74 170 106 170 26 0 32 -33 27 -153 -6
-121 -18 -149 -96 -224 -57 -55 -65 -85 -25 -91 32 -5 126 87 158 154 22 47
25 65 25 177 0 141 -10 181 -51 202 -35 19 -36 18 -81 -6z m-179 -986 c0 -221
-4 -370 -9 -358 -5 11 -9 171 -9 355 -1 300 3 380 15 380 2 0 4 -170 3 -377z"/>
<path d="M1750 2572 c-32 -14 -57 -39 -96 -92 -47 -66 -60 -92 -117 -235 -30
-74 -40 -149 -44 -336 l-4 -187 30 -67 c23 -51 52 -88 121 -159 121 -122 188
-156 304 -156 67 1 94 12 124 50 31 40 82 159 82 191 0 28 -2 30 -32 27 -29
-3 -34 -8 -50 -58 -41 -121 -58 -140 -120 -140 -45 0 -133 25 -166 46 -51 32
-171 167 -199 222 -27 53 -28 61 -28 206 0 153 8 210 48 336 39 125 137 290
172 290 24 0 77 -73 157 -220 14 -25 23 -31 45 -28 48 5 41 33 -39 156 -10 15
-21 34 -25 42 -11 24 -64 84 -92 102 -27 19 -46 21 -71 10z"/>
<path d="M5245 2159 c-44 -10 -45 -10 -160 -65 -69 -33 -90 -39 -150 -39 -69
0 -70 -1 -73 -27 -3 -23 2 -29 25 -35 68 -19 125 -8 233 44 114 55 216 77 245
53 13 -10 15 -55 15 -267 0 -244 -1 -256 -21 -285 -37 -52 -93 -68 -233 -68
-145 0 -183 13 -242 86 -37 45 -38 46 -36 127 3 92 5 104 33 166 28 60 23 86
-16 86 -28 0 -31 -4 -52 -70 -35 -115 -45 -159 -43 -185 1 -14 4 -371 6 -795
2 -424 5 -778 8 -787 7 -28 54 -24 61 5 4 13 5 331 3 705 -2 482 0 682 8 682
6 0 21 -12 35 -26 45 -49 98 -64 231 -64 143 0 208 17 262 66 63 58 66 74 66
351 0 272 -8 320 -56 342 -29 13 -92 13 -149 0z"/>
<path d="M3750 2036 c-81 -54 -141 -146 -218 -336 -17 -41 -34 -91 -38 -110
-9 -49 -24 -74 -35 -63 -27 27 -18 293 13 414 21 81 0 121 -44 87 -62 -49 -54
-596 9 -659 31 -31 58 -17 77 38 9 26 16 56 16 69 0 58 106 316 167 408 40 58
92 107 113 103 27 -4 41 -91 55 -327 7 -129 13 -236 14 -237 2 -5 40 -3 55 3
13 5 16 25 16 111 0 68 5 116 14 136 7 18 26 61 41 97 37 90 88 174 108 178
15 3 17 -12 17 -160 0 -237 27 -357 82 -372 44 -11 64 36 30 68 -25 22 -40
137 -46 332 -4 155 -15 204 -51 218 -25 9 -59 -10 -90 -51 -16 -21 -31 -40
-35 -43 -3 -3 -22 -41 -43 -85 -20 -44 -40 -80 -44 -80 -5 0 -11 29 -15 65
-11 100 -28 158 -55 191 -30 35 -64 37 -113 5z"/>
<path d="M5910 1968 c-86 -44 -138 -144 -125 -242 9 -73 36 -121 108 -199 164
-176 267 -171 267 13 0 44 4 70 11 70 6 0 28 -13 48 -29 78 -61 172 -91 288
-91 47 0 55 3 65 25 18 40 -1 49 -115 57 -72 4 -116 13 -150 28 -59 26 -124
89 -132 127 -9 40 -20 58 -40 61 -35 7 -40 -14 -37 -148 4 -146 0 -170 -30
-170 -32 0 -193 167 -201 209 -10 50 -8 124 4 159 11 31 88 92 115 92 17 0
120 -55 162 -87 41 -31 76 -28 80 7 2 21 -8 32 -71 71 -114 73 -173 84 -247
47z"/>
<path d="M2741 1973 c-41 -8 -117 -62 -157 -111 -22 -26 -46 -54 -54 -62 -30
-30 -108 -136 -126 -170 -15 -28 -19 -57 -19 -150 0 -111 1 -116 28 -152 60
-78 148 -108 320 -108 173 0 164 -15 169 262 3 119 1 224 -4 232 -10 18 -44
21 -53 5 -4 -6 -6 -101 -6 -211 1 -137 -2 -204 -9 -214 -9 -10 -34 -12 -108
-8 -129 7 -178 20 -229 61 l-43 34 0 98 c0 91 2 100 31 146 17 27 71 95 120
151 92 106 134 134 203 134 31 0 66 -24 66 -45 0 -5 7 -29 16 -52 14 -37 21
-43 45 -43 29 0 34 9 30 50 -3 30 -54 121 -79 140 -24 20 -79 24 -141 13z"/>
<path d="M7436 1941 c-20 -32 -46 -142 -46 -195 1 -74 15 -94 97 -137 55 -29
63 -31 152 -27 l94 3 4 -453 c4 -329 2 -461 -7 -480 -14 -33 -81 -84 -135
-103 -29 -10 -97 -14 -245 -14 l-205 0 -65 33 c-36 19 -79 45 -97 58 -30 23
-111 121 -127 154 -30 64 -54 90 -83 90 -28 0 -40 -23 -25 -53 5 -12 42 -65
81 -117 73 -97 125 -145 196 -179 124 -59 106 -56 330 -56 181 1 217 3 260 20
103 39 167 95 191 169 15 44 16 82 9 336 -5 157 -9 423 -11 592 -1 169 -4 314
-7 323 -8 18 -38 20 -55 3 -8 -8 -12 -50 -12 -125 0 -109 -1 -113 -25 -129
-21 -14 -36 -14 -100 -6 -41 6 -90 19 -107 29 -29 17 -33 24 -36 69 -2 30 4
69 14 95 9 24 17 58 18 74 1 25 -3 30 -26 33 -14 2 -29 -1 -32 -7z"/>
<path d="M7010 1860 c-63 -34 -154 -115 -189 -168 -18 -28 -37 -49 -42 -46 -5
3 -9 43 -9 88 0 67 -4 88 -19 107 -17 21 -21 22 -46 11 -29 -14 -29 -8 -5
-117 6 -27 10 -91 9 -141 -1 -51 2 -97 5 -103 4 -6 18 -11 31 -11 20 0 30 12
60 73 63 129 239 287 278 248 9 -9 11 -109 8 -431 -1 -230 0 -428 4 -439 4
-15 15 -21 36 -21 16 0 29 6 30 13 1 11 0 758 -1 854 0 56 -39 103 -83 103
-18 -1 -48 -9 -67 -20z"/>
</g>
</svg>
